<?xml version="1.0" standalone="no"?>
<!DOCTYPE svg PUBLIC "-//W3C//DTD SVG 20010904//EN"
 "http://www.w3.org/TR/2001/REC-SVG-20010904/DTD/svg10.dtd">
<svg version="1.0" xmlns="http://www.w3.org/2000/svg"
 width="700.000000pt" height="700.000000pt" viewBox="0 0 700.000000 700.000000"
 preserveAspectRatio="xMidYMid meet">
<metadata>
Created by potrace 1.14, written by Peter Selinger 2001-2017
</metadata>
<g transform="translate(0.000000,700.000000) scale(0.100000,-0.100000)"
fill="#000000" stroke="none">
<path d="M1427 6445 l-76 -74 615 -616 c338 -338 618 -615 622 -615 4 0 41 33
81 74 l74 74 -616 616 c-338 339 -617 616 -620 616 -2 0 -38 -34 -80 -75z"/>
<path d="M4725 5903 l-616 -617 73 -73 c40 -40 77 -73 82 -73 5 0 285 277 623
615 l615 616 -76 74 c-41 41 -77 75 -80 75 -2 0 -282 -278 -621 -617z"/>
<path d="M995 5869 c-135 -68 -311 -172 -364 -215 -4 -4 109 -163 121 -171 5
-2 50 22 101 55 51 33 143 85 205 117 62 31 112 61 110 65 -16 44 -84 190 -88
189 -3 0 -41 -18 -85 -40z"/>
<path d="M5835 5817 c-22 -50 -40 -96 -40 -100 0 -5 23 -18 50 -30 126 -55
268 -141 390 -238 59 -46 194 -179 233 -229 l20 -25 86 58 c47 33 86 65 86 73
0 47 -295 320 -428 394 -15 9 -45 28 -68 42 -35 22 -279 148 -286 148 -2 0
-21 -42 -43 -93z"/>
<path d="M3217 5474 c-1 -1 -76 -4 -167 -7 -91 -3 -166 -6 -168 -6 -1 -1 77
-81 174 -178 184 -184 213 -225 214 -297 0 -86 -17 -114 -144 -242 -109 -109
-126 -122 -166 -129 -142 -24 -132 -32 -556 393 l-360 361 -80 -14 c-43 -8
-90 -17 -104 -20 -14 -3 -37 -7 -51 -10 -45 -8 -242 -55 -274 -65 -16 -6 -59
-18 -95 -29 -103 -30 -258 -90 -345 -134 -389 -194 -388 -362 4 -557 185 -92
555 -204 811 -245 19 -3 42 -8 50 -10 8 -2 31 -7 50 -10 19 -3 46 -7 60 -10
14 -2 41 -6 60 -9 19 -3 82 -12 140 -20 58 -8 134 -18 170 -21 36 -3 81 -8
100 -10 19 -2 69 -7 110 -10 41 -3 102 -8 135 -10 300 -24 1038 -24 1290 0 22
2 76 6 120 9 106 8 309 30 385 41 14 2 44 7 67 10 23 3 55 8 70 10 15 2 48 7
73 10 25 4 61 10 80 15 19 5 55 12 80 15 66 9 390 90 495 124 378 122 605 273
605 400 0 126 -210 270 -568 390 -102 35 -391 110 -477 126 -16 2 -55 9 -85
15 -30 6 -67 12 -82 15 -25 5 -61 -28 -391 -358 -208 -208 -378 -370 -399
-380 -49 -23 -104 -27 -162 -10 -39 12 -68 33 -152 116 -124 120 -158 177
-151 254 3 27 12 66 22 86 9 20 95 114 190 209 96 95 173 174 171 175 -10 10
-737 27 -749 17z"/>
<path d="M370 5423 c-96 -114 -140 -190 -181 -308 -26 -78 -45 -187 -40 -230
1 -7 40 -11 103 -10 117 0 101 -15 133 125 10 41 31 100 47 130 36 66 94 147
111 154 11 4 -136 156 -152 156 -4 0 -13 -8 -21 -17z"/>
<path d="M2822 5057 c-39 -40 -72 -76 -72 -80 0 -9 140 -147 149 -147 4 0 40
33 80 74 l74 75 -76 75 c-41 42 -77 76 -79 76 -2 0 -36 -33 -76 -73z"/>
<path d="M3919 5097 c-19 -19 -53 -54 -77 -79 l-42 -44 77 -76 78 -75 77 77
77 77 -78 77 -77 77 -35 -34z"/>
<path d="M6758 4935 c-2 -1 -36 -5 -77 -9 -41 -3 -77 -8 -80 -11 -2 -3 -5 -27
-6 -53 -4 -112 -62 -260 -140 -356 l-44 -54 30 -25 c16 -13 49 -42 72 -64 23
-21 47 -42 54 -46 18 -11 120 125 164 218 51 109 79 216 83 318 l3 86 -28 -1
c-16 -1 -30 -2 -31 -3z"/>
<path d="M802 4401 c5 -75 25 -111 92 -172 139 -125 527 -274 921 -354 122
-25 314 -58 405 -70 25 -3 56 -8 70 -10 14 -2 52 -7 85 -10 33 -3 74 -8 90
-10 17 -2 62 -7 100 -10 39 -3 90 -8 115 -10 25 -3 83 -7 130 -9 47 -3 139 -8
205 -11 149 -9 681 -9 830 -1 247 13 324 19 495 37 52 5 118 12 145 14 28 3
77 10 110 15 33 5 83 12 110 15 102 13 325 57 480 95 454 109 792 275 851 415
8 19 14 59 14 90 l0 56 -57 -39 c-128 -86 -318 -172 -533 -240 -88 -28 -345
-94 -415 -106 -26 -4 -124 -22 -220 -40 -16 -3 -50 -8 -75 -11 -25 -3 -54 -8
-65 -10 -11 -2 -42 -7 -70 -10 -27 -3 -63 -8 -80 -10 -16 -2 -61 -7 -100 -10
-38 -3 -81 -8 -95 -10 -14 -2 -70 -7 -125 -11 -55 -3 -118 -8 -140 -10 -268
-22 -980 -22 -1295 1 -25 1 -88 6 -140 9 -52 4 -108 8 -125 10 -16 3 -57 7
-90 10 -112 12 -152 16 -171 20 -10 2 -50 7 -89 12 -38 4 -72 8 -75 9 -8 2
-92 16 -125 21 -27 5 -249 50 -285 58 -8 2 -53 14 -100 26 -47 12 -101 25
-121 30 -156 40 -486 183 -608 265 l-54 36 5 -70z"/>
<path d="M802 3858 c3 -172 3 -175 31 -216 36 -55 122 -122 227 -176 128 -67
238 -108 495 -185 76 -23 329 -78 462 -101 35 -5 75 -12 90 -15 16 -3 64 -9
108 -15 44 -6 91 -13 105 -15 14 -2 57 -7 95 -11 39 -3 77 -8 86 -9 15 -3 117
-12 224 -20 363 -27 1169 -27 1400 0 17 2 68 6 115 10 47 3 103 8 125 11 72 8
289 35 315 40 14 2 45 7 70 10 25 3 54 8 65 10 11 2 34 7 50 9 88 15 294 60
395 87 414 108 700 253 771 390 16 32 19 59 19 202 l0 165 -52 -36 c-87 -59
-283 -148 -443 -202 -136 -45 -404 -117 -480 -128 -16 -2 -46 -8 -65 -13 -45
-12 -397 -68 -470 -75 -30 -3 -71 -7 -90 -10 -68 -8 -136 -15 -195 -20 -33 -3
-85 -8 -115 -10 -64 -6 -220 -15 -335 -20 -113 -5 -666 -5 -750 0 -38 2 -125
7 -192 10 -67 3 -135 8 -150 10 -16 2 -65 6 -108 10 -44 4 -93 8 -110 10 -16
2 -59 6 -95 9 -36 4 -112 14 -170 22 -57 9 -119 17 -137 20 -51 6 -190 31
-278 49 -44 9 -89 19 -100 21 -309 60 -737 221 -881 331 l-34 26 2 -175z
m4956 -323 c-6 -5 -188 -75 -196 -75 -11 0 -76 204 -66 207 5 2 47 18 94 36
l85 32 43 -98 c24 -55 42 -100 40 -102z m-4484 165 c44 -17 82 -33 86 -35 6
-4 -53 -191 -64 -202 -2 -2 -49 13 -104 33 l-101 37 15 36 c9 20 27 64 42 99
14 34 30 62 37 62 6 0 46 -14 89 -30z m3734 -275 c11 -55 20 -101 19 -102 -1
-1 -48 -10 -104 -21 -117 -22 -104 -30 -123 83 -17 107 -18 115 -11 116 3 0
13 2 21 4 8 1 33 6 55 9 22 4 56 10 75 15 19 4 38 5 42 2 3 -3 15 -51 26 -106z
m-3023 90 c44 -8 81 -14 83 -15 3 0 -6 -71 -19 -149 l-11 -63 -52 6 c-51 6
-75 10 -129 22 -28 6 -29 7 -23 54 3 27 10 59 15 72 10 28 11 31 11 63 0 30
10 31 125 10z m710 -89 c39 -3 77 -6 87 -6 14 0 16 -9 12 -57 -2 -32 -5 -81
-6 -110 l-3 -52 -80 6 c-72 5 -104 8 -128 12 -7 1 -1 113 9 161 1 8 3 25 3 37
1 15 6 20 19 18 9 -2 49 -6 87 -9z m1577 -116 c2 -77 0 -93 -12 -95 -8 -1 -54
-5 -102 -8 -79 -6 -88 -5 -89 11 -1 35 -9 138 -13 170 -2 19 1 32 8 33 91 4
182 12 186 15 10 11 19 -39 22 -126z m-741 62 c1 -50 1 -157 0 -174 -1 -16
-13 -18 -106 -18 l-105 0 1 108 1 109 104 1 104 1 1 -27z"/>
<path d="M801 2552 c0 -792 1 -818 20 -857 26 -53 61 -88 141 -141 205 -137
653 -280 1093 -349 22 -4 49 -8 60 -10 29 -4 263 -35 310 -40 55 -7 126 -13
215 -20 41 -3 93 -8 115 -11 221 -25 1064 -25 1355 1 19 1 74 6 122 9 47 4 97
9 110 11 12 2 50 6 83 10 113 11 276 33 365 49 14 3 41 7 61 10 20 3 92 17
160 31 549 115 937 285 1020 446 18 37 19 68 19 858 l0 821 -54 -35 c-154 -98
-336 -172 -651 -265 -32 -10 -278 -67 -323 -75 -65 -12 -83 -15 -197 -34 -66
-11 -140 -23 -165 -26 -25 -3 -56 -8 -70 -10 -33 -4 -136 -16 -180 -21 -242
-24 -328 -31 -510 -41 -171 -9 -809 -9 -960 1 -155 10 -238 15 -300 21 -30 3
-84 7 -120 10 -36 3 -94 10 -130 15 -36 5 -90 11 -120 15 -30 3 -80 10 -110
15 -30 5 -73 12 -95 15 -23 3 -52 8 -65 10 -14 3 -41 8 -60 11 -161 25 -479
104 -644 159 -146 49 -295 115 -405 180 l-91 54 1 -817z m385 389 c51 -31 54
-57 52 -381 -3 -277 -4 -297 -23 -322 -46 -61 -143 -53 -180 16 -14 27 -16 68
-13 339 l3 309 33 29 c39 35 82 38 128 10z m1799 -323 c204 -79 284 -319 164
-494 -27 -40 -66 -77 -103 -99 -16 -9 -16 -12 -1 -42 28 -56 111 -138 172
-170 175 -91 364 -67 505 65 44 41 107 129 97 135 -160 103 -215 277 -138 434
36 76 100 135 178 164 79 30 188 23 261 -17 238 -129 230 -469 -12 -584 -55
-26 -60 -32 -100 -111 -54 -109 -169 -227 -275 -282 -330 -171 -730 -42 -893
288 -35 71 -45 83 -78 95 -87 31 -159 104 -195 196 -23 59 -18 184 10 245 42
94 138 170 237 188 51 10 132 5 171 -11z m-1808 -657 c46 -19 69 -72 54 -122
-36 -119 -211 -97 -211 28 0 43 34 91 72 101 39 11 44 10 85 -7z"/>
<path d="M2823 2398 c-39 -19 -66 -102 -44 -137 7 -11 10 -11 17 1 10 18 63
45 82 42 6 -1 18 -2 26 -3 8 0 28 -12 44 -26 l30 -25 7 29 c9 42 -3 78 -37
106 -32 27 -85 32 -125 13z"/>
<path d="M3907 2390 c-29 -23 -48 -77 -40 -110 6 -24 11 -25 33 -5 42 38 129
31 154 -12 7 -13 10 -13 17 -2 12 20 11 64 -3 94 -24 54 -113 73 -161 35z"/>
<path d="M802 1228 l3 -175 37 -47 c52 -68 125 -119 263 -186 151 -73 262
-113 495 -176 82 -23 287 -67 365 -79 28 -5 55 -9 60 -11 6 -1 28 -5 50 -8
124 -19 175 -27 215 -32 25 -3 56 -7 70 -9 14 -2 59 -6 100 -10 41 -4 85 -8
96 -10 12 -2 59 -6 105 -10 46 -3 111 -8 144 -10 304 -23 986 -23 1245 0 25 2
83 7 130 10 47 3 103 8 125 10 230 24 377 43 530 71 77 14 154 28 170 31 62
10 283 66 394 100 360 109 606 251 641 370 7 23 10 100 8 191 l-3 154 -26 -20
c-87 -69 -364 -190 -579 -253 -188 -56 -532 -129 -725 -154 -16 -3 -48 -7 -70
-10 -95 -15 -248 -33 -330 -40 -33 -3 -89 -7 -125 -10 -36 -3 -85 -8 -110 -10
-298 -24 -1110 -25 -1305 0 -16 2 -70 6 -120 10 -49 3 -99 8 -110 10 -11 2
-49 7 -85 9 -74 6 -111 11 -260 32 -58 8 -121 17 -140 20 -19 3 -46 7 -60 10
-14 2 -38 7 -55 10 -227 38 -659 149 -689 176 -6 4 -16 8 -24 8 -40 0 -301
125 -405 195 l-29 18 4 -175z m479 -157 l87 -33 -35 -103 -35 -102 -78 28
c-44 15 -90 34 -103 41 l-24 13 41 97 c23 54 46 96 51 94 6 -1 49 -18 96 -35z
m4432 -48 c20 -49 38 -94 39 -101 2 -9 -32 -28 -95 -52 -87 -35 -98 -37 -106
-22 -19 38 -63 184 -56 190 6 7 163 70 176 71 4 1 23 -38 42 -86z m-3728 -133
c39 -6 73 -15 78 -19 6 -6 -19 -198 -28 -208 -1 -2 -26 1 -56 7 -30 5 -70 12
-89 15 -71 12 -69 4 -44 118 12 56 23 104 23 106 1 2 11 1 24 -2 12 -3 54 -11
92 -17z m3006 8 c1 -15 4 -31 23 -123 15 -71 14 -77 -7 -81 -111 -22 -183 -32
-188 -26 -4 4 -10 28 -13 54 -4 26 -10 69 -15 95 -5 26 -8 50 -5 54 2 3 23 9
46 13 78 11 113 18 117 22 10 9 41 3 42 -8z m-2223 -103 c9 -2 20 -4 24 -4 7
-1 -1 -155 -11 -213 0 -3 -9 -5 -18 -3 -23 5 -129 14 -166 15 l-28 0 7 73 c4
39 8 81 9 92 1 11 3 28 4 38 1 16 9 17 82 11 44 -3 88 -7 97 -9z m1496 -2 c3
-10 8 -60 11 -110 7 -92 6 -93 -17 -94 -45 -1 -153 -10 -170 -13 -14 -3 -18 3
-19 22 0 15 -2 36 -4 46 -7 37 -8 133 -2 143 3 5 30 11 59 12 28 1 53 3 54 4
1 1 20 3 42 5 32 2 42 -2 46 -15z m-739 -25 c3 -3 8 -163 6 -199 -1 -13 -17
-15 -103 -15 l-103 1 -2 105 c0 58 3 107 7 110 9 6 189 4 195 -2z"/>
</g>
</svg>
